<?xml version="1.0" encoding="utf-8"?>
<!-- Generator: Adobe Illustrator 16.0.0, SVG Export Plug-In . SVG Version: 6.00 Build 0)  -->
<!DOCTYPE svg PUBLIC "-//W3C//DTD SVG 1.1//EN" "http://www.w3.org/Graphics/SVG/1.1/DTD/svg11.dtd">
<svg version="1.1" xmlns="http://www.w3.org/2000/svg" xmlns:xlink="http://www.w3.org/1999/xlink" x="0px" y="0px" width="550px"
	 height="552px" viewBox="0 0 550 552" enable-background="new 0 0 550 552" xml:space="preserve">
<g id="ref">
</g>
<g id="animals">
	<polygon fill="#197F38" points="411.496,338.568 439.599,318.162 438.595,366.493 	"/>
	<polygon fill="#197F38" points="359.307,288.088 368.339,235.46 321.168,263.386 	"/>
	<polygon fill="#CDFCDF" points="515.876,500.748 510.857,474.972 464.69,387.975 383.394,297.755 310.128,227.942 275,139.871 
		156.569,118.39 132.482,177.462 160.584,314.939 240.876,394.419 371.351,470.676 476.733,512.563 507.847,513.637 	"/>
	<polygon fill="#197F38" points="412.5,477.119 445.621,430.936 466.697,498.601 	"/>
	<polygon fill="#197F38" points="249.909,369.716 298.084,357.901 287.044,407.307 	"/>
	<polygon fill="#197F38" points="157.573,241.905 194.708,234.386 173.631,293.458 	"/>
	<polygon fill="#197F38" points="525.912,66.836 550,84.021 531.935,43.207 	"/>
	<polygon fill="#197F38" points="483.759,109.798 519.891,146.315 510.857,79.725 	"/>
	<polygon fill="#197F38" points="388.412,150.611 408.485,204.313 423.54,140.945 	"/>
	<polygon fill="#197F38" points="320.164,165.648 297.08,210.757 271.989,158.129 318.157,152.759 	"/>
	<path fill="#5DC185" d="M26.095,191.425C27.368,160.2,28.111,94.022,44.161,67.91c14.996-24.398,66.197-53.909,92.336-62.294
		c24.04-7.712,75.576-6.337,100.365-2.148c13.638,2.305,39.273,14.112,52.19,19.333c15.474,6.254,44.73,25.494,61.222,26.851
		c25.728,2.116,76.274-15.883,100.365-25.777c9.329-3.832,25.479-17.627,35.128-20.407c8.483-2.444,27.547-5.826,35.127-1.074
		c10.266,6.434,22.115,32.379,22.081,45.11c-0.026,9.729-11.319,26.827-17.063,34.369c-13.171,17.297-45.547,47.026-64.233,56.924
		c-21.928,11.615-71.103,20.098-95.347,23.629c-23.143,3.371-69.988,4.836-93.339,4.296c-20.395-0.472-61.588-13.156-81.295-7.518
		c-9.75,2.79-28.785,14.95-33.121,24.703c-5.837,13.129,0.599,43.926,4.015,57.999c4.797,19.767,20.249,58.116,32.117,74.109
		c16.231,21.872,60.972,52.638,82.299,68.738c20.647,15.586,62.99,45.324,85.31,57.998c23.923,13.585,73.206,38.669,99.361,46.184
		c12.685,3.646,42.778-3.359,52.19,6.444c6.357,6.622,6.335,28.203,5.018,37.592c-0.7,4.989-8.029,18.259-8.029,18.259
		s-45.313-0.818-60.219-3.223c-14.081-2.271-41.684-10.244-55.201-15.036c-17.515-6.21-51.607-21.543-68.248-30.073
		c-20.661-10.592-60.412-35.075-80.292-47.258c-11.912-7.3-47.171-30.073-47.171-30.073s-6.641,17.558-11.041,21.481
		c-6.705,5.98-24.408,11.26-33.121,11.814c-17.389,1.105-52.173-7.854-68.248-15.037c-16.696-7.461-47.976-28.705-60.219-42.962
		C17.6,389.803,0,348.235,0,348.235v-50.48c0,0,11.231-23.394,15.055-31.147c3.458-7.012,12.485-20.175,14.051-27.925
		C31.444,227.108,25.613,203.255,26.095,191.425z"/>
	<ellipse fill="#197F38" cx="122.947" cy="93.441" rx="33.622" ry="20.407"/>
	<path fill="#197F38" d="M199.727,425.565c0,0-56.974-50.551-73.727-69.565c-9.817-11.144-35-48-35-48l-5,5c0,0,24.914,38.551,35,50
		c16.963,19.256,76,69,76,69L199.727,425.565z"/>
</g>
</svg>
