<?xml version="1.0" encoding="utf-8"?>
<!-- Generator: Adobe Illustrator 16.0.0, SVG Export Plug-In . SVG Version: 6.00 Build 0)  -->
<!DOCTYPE svg PUBLIC "-//W3C//DTD SVG 1.1//EN" "http://www.w3.org/Graphics/SVG/1.1/DTD/svg11.dtd">
<svg version="1.1" xmlns="http://www.w3.org/2000/svg" xmlns:xlink="http://www.w3.org/1999/xlink" x="0px" y="0px" width="550px"
	 height="552px" viewBox="0 0 550 552" enable-background="new 0 0 550 552" xml:space="preserve">
<g id="ref">
	<path fill="#8987A0" d="M28.323,9.035c27.971-22.806,108.436,4.021,144.006,10.125c35.375,6.07,106.971,20.881,138.38,38.251
		c11.672,6.456,39.377,36.001,39.377,36.001s41.378-8.693,55.127-6.75c16.346,2.311,47.072,16.636,60.752,25.876
		c15.163,10.241,41.359,36.694,51.752,51.752c10.512,15.23,27.034,49.301,30.376,67.502c3.409,18.567-1.491,56.741-4.5,75.378
		c-3.481,21.553-13.696,64.401-22.501,84.379c-11.988,27.2-39.868,82.951-64.127,100.129
		c-24.776,17.544-114.755,27.001-118.13,28.126c-3.375,1.126-137.139-2.55-180.008-16.876
		c-29.919-9.999-86.372-42.292-108.004-65.252c-16.996-18.039-40.188-63.691-46.127-87.754c-3.639-14.746-8.44-48.125,0-60.752
		c4.906-7.338,24.084-15.728,32.626-13.501c6.588,1.718,13.622,15.395,16.876,21.376c6.673,12.267,12.439,40.068,18,52.877
		c5.462,12.581,16.551,38.319,25.876,48.377c9.974,10.757,36.071,25.604,49.502,31.502c15.993,7.021,50.308,14.939,67.503,18.001
		c24.192,4.305,73.555,12.487,97.879,8.999c12.874-1.845,36.768-13.264,48.377-19.125c4.737-2.393,18-11.251,18-11.251
		s0.261-37.721-7.875-46.126c-8.785-9.077-38.096-15.553-49.502-10.126c-6.589,3.135-9.817,19.577-13.5,25.876
		c-7.284,12.459-19.247,40.754-31.501,48.377c-6.013,3.741-21.311,5.299-28.126,3.376c-16.571-4.678-40.938-31.535-54.002-42.753
		c-12.533-10.76-38.267-31.938-48.377-45.001c-19.179-24.781-47.421-81.393-59.628-110.255
		c-12.059-28.511-24.956-89.666-37.126-118.13c-6.187-14.468-27.473-39.662-30.376-55.127C16.182,59.805,15.128,19.793,28.323,9.035
		z"/>
	<path fill="#585777" d="M309.585,363.424c0,0,11.406-51.268,13.5-68.628c2.935-24.319,4.5-97.879,4.5-97.879h4.5
		c0,0-1.386,74.424-4.5,99.004c-2.24,17.676-14.625,69.753-14.625,69.753L309.585,363.424z"/>
	<path fill="#EEEEFF" d="M307.25,367.125c-3.627,13.923,1.561,43.292,4.5,57.377c1.581,7.575,6.31,22.519,10.125,29.251
		c11.222,19.802,38.85,58.272,58.502,69.753C398.907,534.332,481.667,552,481.667,552s-66.003-49.203-77.663-65.619
		c-8.77-12.349-19.637-41.38-22.501-56.253c-2.766-14.361,9.182-47.117,0-58.502C370.663,358.185,330.005,350.521,314,357
		C311.18,358.142,308.017,364.182,307.25,367.125z"/>
	<circle fill="#585777" cx="455.278" cy="224.481" r="26.439"/>
</g>
<g id="lion">
</g>
</svg>
