<?xml version="1.0" encoding="utf-8"?>
<!-- Generator: Adobe Illustrator 16.0.0, SVG Export Plug-In . SVG Version: 6.00 Build 0)  -->
<!DOCTYPE svg PUBLIC "-//W3C//DTD SVG 1.1//EN" "http://www.w3.org/Graphics/SVG/1.1/DTD/svg11.dtd">
<svg version="1.1" id="Layer_1" xmlns="http://www.w3.org/2000/svg" xmlns:xlink="http://www.w3.org/1999/xlink" x="0px" y="0px"
	 width="625px" height="566px" viewBox="0 0 625 566" enable-background="new 0 0 625 566" xml:space="preserve">
<polygon fill="#FF0000" points="180,353.906 1,511.906 66,514.906 57,565.906 237,403.906 "/>
<polygon fill="#FF0000" points="446,353.906 625,511.906 560,514.906 569,565.906 389,403.906 "/>
<circle fill="#C3CAE2" cx="309.775" cy="232" r="232"/>
<g>
	<path d="M377.025,294.283v25.342H235.082c-0.197-6.347,0.828-12.451,3.076-18.311c3.611-9.668,9.397-19.189,17.358-28.564
		c7.958-9.375,19.457-20.215,34.497-32.52c23.339-19.139,39.111-34.3,47.314-45.483c8.203-11.181,12.305-21.753,12.305-31.714
		c0-10.448-3.735-19.263-11.206-26.44s-17.212-10.767-29.224-10.767c-12.696,0-22.852,3.809-30.469,11.426
		s-11.477,18.164-11.572,31.641l-27.1-2.783c1.854-20.215,8.837-35.619,20.947-46.216C273.117,109.299,289.377,104,309.789,104
		c20.604,0,36.914,5.713,48.926,17.139s18.018,25.587,18.018,42.48c0,8.595-1.758,17.042-5.273,25.342
		c-3.516,8.302-9.353,17.042-17.505,26.221c-8.155,9.181-21.705,21.778-40.649,37.793c-15.82,13.282-25.979,22.291-30.469,27.026
		c-4.493,4.738-8.203,9.499-11.133,14.282H377.025z"/>
</g>
</svg>
